<svg height="480pt" viewBox="0 0 480 480" width="480pt" xmlns="http://www.w3.org/2000/svg" xmlns:xlink="http://www.w3.org/1999/xlink"><linearGradient id="lg1"><stop offset="0" stop-color="#006df0"/><stop offset="1" stop-color="#00e7f0"/></linearGradient><linearGradient id="linear0" gradientUnits="userSpaceOnUse" x1="70.368" x2="81.352" xlink:href="#lg1" y1="472.768" y2="-16.184"/><linearGradient id="linear1" gradientUnits="userSpaceOnUse" x1="237.56" x2="248.552" xlink:href="#lg1" y1="476.52" y2="-12.432"/><linearGradient id="linear2" gradientUnits="userSpaceOnUse" x1="404.408" x2="415.392" xlink:href="#lg1" y1="479.96" y2="-8.984"/><linearGradient id="linear3" gradientUnits="userSpaceOnUse" x1="234.816" x2="245.8" xlink:href="#lg1" y1="476.464" y2="-12.488"/><path d="m72 320c-35.785156 0-72 10.992188-72 32v96c0 21.007812 36.214844 32 72 32s72-10.992188 72-32v-96c0-21.007812-36.214844-32-72-32zm0 16c36.375 0 56 11.359375 56 16s-19.625 16-56 16-56-11.359375-56-16 19.625-16 56-16zm0 128c-36.375 0-56-11.359375-56-16v-11.199219c17.574219 7.941407 36.726562 11.769531 56 11.199219 19.273438.570312 38.425781-3.257812 56-11.199219v11.199219c0 4.640625-19.625 16-56 16zm0-32c-36.375 0-56-11.359375-56-16v-11.199219c17.574219 7.941407 36.726562 11.769531 56 11.199219 19.273438.570312 38.425781-3.257812 56-11.199219v11.199219c0 4.640625-19.625 16-56 16zm0-32c-36.375 0-56-11.359375-56-16v-11.199219c17.574219 7.941407 36.726562 11.769531 56 11.199219 19.273438.570312 38.425781-3.257812 56-11.199219v11.199219c0 4.640625-19.625 16-56 16zm0 0" fill="url(#linear0)"/><path d="m240 256c-35.785156 0-72 10.992188-72 32v160c0 21.007812 36.214844 32 72 32s72-10.992188 72-32v-160c0-21.007812-36.214844-32-72-32zm0 16c36.375 0 56 11.359375 56 16s-19.625 16-56 16-56-11.359375-56-16 19.625-16 56-16zm0 192c-36.375 0-56-11.359375-56-16v-11.199219c17.574219 7.941407 36.726562 11.769531 56 11.199219 19.273438.570312 38.425781-3.257812 56-11.199219v11.199219c0 4.640625-19.625 16-56 16zm0-32c-36.375 0-56-11.359375-56-16v-11.199219c17.574219 7.941407 36.726562 11.769531 56 11.199219 19.273438.570312 38.425781-3.257812 56-11.199219v11.199219c0 4.640625-19.625 16-56 16zm0-32c-36.375 0-56-11.359375-56-16v-11.199219c17.574219 7.941407 36.726562 11.769531 56 11.199219 19.273438.570312 38.425781-3.257812 56-11.199219v11.199219c0 4.640625-19.625 16-56 16zm0-32c-36.375 0-56-11.359375-56-16v-11.199219c17.574219 7.941407 36.726562 11.769531 56 11.199219 19.273438.570312 38.425781-3.257812 56-11.199219v11.199219c0 4.640625-19.625 16-56 16zm0-32c-36.375 0-56-11.359375-56-16v-11.199219c17.574219 7.941407 36.726562 11.769531 56 11.199219 19.273438.570312 38.425781-3.257812 56-11.199219v11.199219c0 4.640625-19.625 16-56 16zm0 0" fill="url(#linear1)"/><path d="m408 160c-35.785156 0-72 10.992188-72 32v256c0 21.007812 36.214844 32 72 32s72-10.992188 72-32v-256c0-21.007812-36.214844-32-72-32zm0 16c36.375 0 56 11.359375 56 16s-19.625 16-56 16-56-11.359375-56-16 19.625-16 56-16zm0 288c-36.375 0-56-11.359375-56-16v-11.199219c17.574219 7.941407 36.726562 11.769531 56 11.199219 19.273438.570312 38.425781-3.257812 56-11.199219v11.199219c0 4.640625-19.625 16-56 16zm0-32c-36.375 0-56-11.359375-56-16v-11.199219c17.574219 7.941407 36.726562 11.769531 56 11.199219 19.273438.570312 38.425781-3.257812 56-11.199219v11.199219c0 4.640625-19.625 16-56 16zm0-32c-36.375 0-56-11.359375-56-16v-11.199219c17.574219 7.941407 36.726562 11.769531 56 11.199219 19.273438.570312 38.425781-3.257812 56-11.199219v11.199219c0 4.640625-19.625 16-56 16zm0-32c-36.375 0-56-11.359375-56-16v-11.199219c17.574219 7.941407 36.726562 11.769531 56 11.199219 19.273438.570312 38.425781-3.257812 56-11.199219v11.199219c0 4.640625-19.625 16-56 16zm0-32c-36.375 0-56-11.359375-56-16v-11.199219c17.574219 7.941407 36.726562 11.769531 56 11.199219 19.273438.570312 38.425781-3.257812 56-11.199219v11.199219c0 4.640625-19.625 16-56 16zm0-32c-36.375 0-56-11.359375-56-16v-11.199219c17.574219 7.941407 36.726562 11.769531 56 11.199219 19.273438.570312 38.425781-3.257812 56-11.199219v11.199219c0 4.640625-19.625 16-56 16zm0-32c-36.375 0-56-11.359375-56-16v-11.199219c17.574219 7.941407 36.726562 11.769531 56 11.199219 19.273438.570312 38.425781-3.257812 56-11.199219v11.199219c0 4.640625-19.625 16-56 16zm0-32c-36.375 0-56-11.359375-56-16v-11.199219c17.574219 7.941407 36.726562 11.769531 56 11.199219 19.273438.570312 38.425781-3.257812 56-11.199219v11.199219c0 4.640625-19.625 16-56 16zm0 0" fill="url(#linear2)"/><path d="m392 0v16h60.6875l-152 152h-167.695312l-130.265626 113.976562 10.546876 12.046876 125.734374-110.023438h168.304688l156.6875-156.6875v60.6875h16v-88zm0 0" fill="url(#linear3)"/></svg>